<svg id="Layer_1" data-name="Layer 1" xmlns="http://www.w3.org/2000/svg" viewBox="0 0 32.42 27.27"><defs><style>.cls-1{fill:#fff;}</style></defs><path class="cls-1" d="M18.46,4.11v8.76h-2.9a.76.76,0,0,0-.77.77h0a.76.76,0,0,0,.77.76h2.9v9.21a1.08,1.08,0,0,0,1.08,1.09h3.35a.77.77,0,1,0,0-1.53H20V14.4h2.9a.76.76,0,0,0,.77-.76h0a.76.76,0,0,0-.77-.77H20V4.11h2.9a.77.77,0,0,0,0-1.54H19.54a1.08,1.08,0,0,0-1.08,1.09Z"/><path class="cls-1" d="M25.74,22.16V25.7a1.57,1.57,0,0,0,1.57,1.57h3.54a1.57,1.57,0,0,0,1.57-1.57V22.16a1.57,1.57,0,0,0-1.57-1.57H27.31a1.57,1.57,0,0,0-1.57,1.57Z"/><path class="cls-1" d="M25.74,11.87v3.54A1.57,1.57,0,0,0,27.31,17h3.54a1.57,1.57,0,0,0,1.57-1.57V11.87a1.57,1.57,0,0,0-1.57-1.57H27.31a1.57,1.57,0,0,0-1.57,1.57Z"/><path class="cls-1" d="M25.74,1.57V5.11a1.57,1.57,0,0,0,1.57,1.57h3.54a1.57,1.57,0,0,0,1.57-1.57V1.57A1.57,1.57,0,0,0,30.85,0H27.31a1.57,1.57,0,0,0-1.57,1.57Z"/><path class="cls-1" d="M10.82,9.63H1.89A1.89,1.89,0,0,0,0,11.52v4.9a1.9,1.9,0,0,0,1.89,1.9h8.93a1.9,1.9,0,0,0,1.89-1.9v-4.9A1.89,1.89,0,0,0,10.82,9.63Z"/></svg>