<svg id="Layer_1" data-name="Layer 1" xmlns="http://www.w3.org/2000/svg" viewBox="0 0 25.18 25.18"><defs><style>.cls-1{fill:#fff;fill-rule:evenodd;}</style></defs><path class="cls-1" d="M13.85,13.63v1.48H11.33V13.45A2.25,2.25,0,0,1,13,11.28a1.28,1.28,0,0,0,.9-1.21,1.29,1.29,0,0,0-1.26-1.26,1.26,1.26,0,0,0-1.26,1.26H8.81a3.79,3.79,0,0,1,3.78-3.78,3.78,3.78,0,0,1,1.26,7.34m-1.26,5.25a1.26,1.26,0,1,1,1.26-1.25,1.25,1.25,0,0,1-1.26,1.25M12.59,0A12.59,12.59,0,1,0,25.18,12.59,12.59,12.59,0,0,0,12.59,0"/></svg>