<svg id="Layer_1" data-name="Layer 1" xmlns="http://www.w3.org/2000/svg" viewBox="0 0 35.65 35.65"><defs><style>.cls-1{fill:#fff;fill-rule:evenodd;}</style></defs><path class="cls-1" d="M31,17.82H9.6a1.37,1.37,0,1,1,0-2.74h9.6V1.37A1.37,1.37,0,0,0,17.82,0H1.37A1.37,1.37,0,0,0,0,1.37V34.28a1.37,1.37,0,0,0,1.37,1.37H17.82a1.38,1.38,0,0,0,1.38-1.37V20.57H31l-5.89,5.88a1.38,1.38,0,0,0,0,1.94,1.36,1.36,0,0,0,1.94,0l8.23-8.23a1.37,1.37,0,0,0,0-1.93L27,10a1.36,1.36,0,0,0-1.94,0,1.38,1.38,0,0,0,0,1.94Z"/></svg>