<svg id="Layer_1" data-name="Layer 1" xmlns="http://www.w3.org/2000/svg" xmlns:xlink="http://www.w3.org/1999/xlink" viewBox="0 0 133.61 35.63"><defs><style>.cls-1{fill:#212b54;}.cls-2{fill:url(#linear-gradient);}.cls-3{fill:url(#linear-gradient-2);}.cls-4{fill:url(#linear-gradient-3);}.cls-5{fill:url(#linear-gradient-4);}.cls-6{fill:url(#linear-gradient-5);}.cls-7{fill:url(#linear-gradient-6);}.cls-8{fill:url(#linear-gradient-7);}.cls-9{fill:url(#linear-gradient-8);}.cls-10{fill:url(#linear-gradient-9);}</style><linearGradient id="linear-gradient" y1="2011.51" x2="9.97" y2="2011.51" gradientTransform="matrix(1, 0, 0, -1, 0, 2022)" gradientUnits="userSpaceOnUse"><stop offset="0" stop-color="#dc4d62"/><stop offset="1" stop-color="#d1264d"/></linearGradient><linearGradient id="linear-gradient-2" x1="375.19" y1="2019.78" x2="521.01" y2="2019.78" xlink:href="#linear-gradient"/><linearGradient id="linear-gradient-3" x1="1930.47" y1="1996.86" x2="2682.97" y2="1996.86" xlink:href="#linear-gradient"/><linearGradient id="linear-gradient-4" x1="679.68" y1="1988.59" x2="825.51" y2="1988.59" xlink:href="#linear-gradient"/><linearGradient id="linear-gradient-5" x1="250.59" y1="1996" x2="396.42" y2="1996" xlink:href="#linear-gradient"/><linearGradient id="linear-gradient-6" x1="970.7" y1="2004.21" x2="1733.83" y2="2004.21" xlink:href="#linear-gradient"/><linearGradient id="linear-gradient-7" x1="809.97" y1="2012.54" x2="955.8" y2="2012.54" xlink:href="#linear-gradient"/><linearGradient id="linear-gradient-8" x1="114.53" y1="2009.1" x2="4564.74" y2="2009.1" xlink:href="#linear-gradient"/><linearGradient id="linear-gradient-9" x1="1928.03" y1="1999.16" x2="6377.74" y2="1999.16" xlink:href="#linear-gradient"/></defs><path class="cls-1" d="M46.61,10.52a1.59,1.59,0,0,1,.52-1.21,1.52,1.52,0,0,1,2.25,0,1.68,1.68,0,0,1,.47,1.17,1.54,1.54,0,0,1-.5,1.19,1.59,1.59,0,0,1-1.1.46,1.62,1.62,0,0,1-1.12-.46A1.51,1.51,0,0,1,46.61,10.52Zm2.86,3.87H46.93V27h2.54V14.4Zm3.57,0h2.24l.1,1.71c0,.51.06,1,.1,1.52a6.25,6.25,0,0,1,2-2.59,5,5,0,0,1,3.12-1,4.18,4.18,0,0,1,3,1.06,3.68,3.68,0,0,1,1.19,2.71V27H62.19V19a2.71,2.71,0,0,0-.66-1.65,2.57,2.57,0,0,0-1.88-.73,4.19,4.19,0,0,0-1.64.31,4,4,0,0,0-1.28.86,4.25,4.25,0,0,0-1.16,3V27H53V14.39ZM69.28,8.85H71.8v5.58h3.34v2.29H71.8V27H69.28V16.72H67V14.43h2.24V8.85ZM87.53,25.51a6.57,6.57,0,0,1-2.17,1.3,7.36,7.36,0,0,1-2.62.48,6.18,6.18,0,0,1-2.58-.53,6.75,6.75,0,0,1-2.1-1.41,6.6,6.6,0,0,1-1.41-7.22,6.73,6.73,0,0,1,3.48-3.54,6.07,6.07,0,0,1,2.52-.54,5.63,5.63,0,0,1,3.67,1.29,7.14,7.14,0,0,1,2.25,3.36c-.62.23-1.32.5-2.12.82l-2.47,1-2.56,1L79,22.5a4.08,4.08,0,0,0,1.5,1.66,4,4,0,0,0,2.14.61,4.75,4.75,0,0,0,1.62-.31,3.52,3.52,0,0,0,1.32-.81l1.91,1.86ZM85.39,18.1A2.38,2.38,0,0,0,84.26,17a3.54,3.54,0,0,0-1.59-.38,3.78,3.78,0,0,0-1.59.33,4.29,4.29,0,0,0-1.27.89A4.61,4.61,0,0,0,79,19.09a3.77,3.77,0,0,0-.3,1.48.74.74,0,0,0,0,.21.29.29,0,0,1,0,.09l1.68-.67c.61-.25,1.21-.5,1.8-.76l1.73-.72,1.49-.62Zm8,8.9H90.81V8.83h2.53Zm6.17,0H97V8.83h2.53V27Zm3.27-17.43a1.6,1.6,0,0,1,.52-1.2,1.65,1.65,0,0,1,1.12-.49A1.69,1.69,0,0,1,106,9.57a1.55,1.55,0,0,1-.51,1.19,1.62,1.62,0,0,1-1.1.47,1.67,1.67,0,0,1-1.12-.47A1.55,1.55,0,0,1,102.78,9.57ZM105.64,27h-2.53V14.39h2.53V27Zm11.92-3.11.79,1c.25.31.5.64.76,1a6.85,6.85,0,0,1-1.88,1.06,6.62,6.62,0,0,1-8.35-3.68,6.5,6.5,0,0,1,0-5.12,6.61,6.61,0,0,1,3.51-3.52,6.77,6.77,0,0,1,4.89-.14,7.22,7.22,0,0,1,1.92,1.06l-1.64,2a3.6,3.6,0,0,0-1.16-.65,4.22,4.22,0,0,0-4.37.95,3.68,3.68,0,0,0-.85,1.28,4.5,4.5,0,0,0,0,3.23,3.72,3.72,0,0,0,.85,1.29,4,4,0,0,0,1.3.88,4.3,4.3,0,0,0,1.63.32,4.6,4.6,0,0,0,1.43-.23A3.54,3.54,0,0,0,117.56,23.89Zm2.74-3.07a6.47,6.47,0,0,1,.52-2.61,6.91,6.91,0,0,1,3.49-3.61,5.92,5.92,0,0,1,2.52-.54,6,6,0,0,1,1.63.23,5.41,5.41,0,0,1,1.28.56,3.84,3.84,0,0,1,.86.69,2.84,2.84,0,0,1,.45.64l.12-1.78h2.44V27h-2.56V25.39a3.74,3.74,0,0,1-1.33,1.2,6,6,0,0,1-1.23.49,5.73,5.73,0,0,1-1.64.21,6.62,6.62,0,0,1-2.64-.52,6.44,6.44,0,0,1-3.43-3.49A6.13,6.13,0,0,1,120.3,20.82Zm2.56-.16a4.11,4.11,0,0,0,.31,1.63,3.91,3.91,0,0,0,.85,1.3,4,4,0,0,0,1.28.86,4.52,4.52,0,0,0,3.29,0,4,4,0,0,0,2.16-2.17,4.5,4.5,0,0,0,0-3.23,3.68,3.68,0,0,0-.85-1.28,4,4,0,0,0-1.31-.86,4.39,4.39,0,0,0-3.29,0,4,4,0,0,0-2.44,3.75Zm-72.36.65.08-.08-.08-.08Z"/><path class="cls-2" d="M.64,14.88a2.19,2.19,0,0,0,3.11,0L9.33,9.23a2.23,2.23,0,0,0,0-3.14,2.19,2.19,0,0,0-3.09,0h0L.64,11.74a2.26,2.26,0,0,0,0,3.15Z"/><path class="cls-3" d="M14.71,3.79a2.25,2.25,0,0,0,.47-2.42,2.14,2.14,0,0,0-.81-1,2.18,2.18,0,0,0-3.24,1,2.25,2.25,0,0,0,.47,2.42,2.21,2.21,0,0,0,1.56.65A2.16,2.16,0,0,0,14.71,3.79Z"/><path class="cls-4" d="M34.56,20.74a2.19,2.19,0,0,0-3.09,0h0l-5.59,5.65a2.25,2.25,0,0,0,0,3.15,2.19,2.19,0,0,0,3.09,0h0l5.59-5.66A2.25,2.25,0,0,0,34.56,20.74Z"/><path class="cls-5" d="M20.5,31.84a2.22,2.22,0,0,0,.33,3.41,2.18,2.18,0,0,0,3.24-1,2.23,2.23,0,0,0-.47-2.42,2.17,2.17,0,0,0-3.1,0Z"/><path class="cls-6" d="M11.07,24.43A2.15,2.15,0,0,0,8.68,24a2.13,2.13,0,0,0-1,.81,2.26,2.26,0,0,0,0,2.47,2.19,2.19,0,0,0,3.38.34,2.25,2.25,0,0,0,0-3.14Z"/><path class="cls-7" d="M18.93,13.33l-.09.09-5.58,5.65a2.25,2.25,0,0,0,0,3.14,2.17,2.17,0,0,0,3.08,0l0,0,.08-.08L22,16.47a2.23,2.23,0,0,0,0-3.11A2.19,2.19,0,0,0,18.93,13.33Z"/><path class="cls-8" d="M24.3,11a2.15,2.15,0,0,0,2.39.48,2.19,2.19,0,0,0,1-.81,2.26,2.26,0,0,0,0-2.47,2.19,2.19,0,0,0-3.38-.34A2.23,2.23,0,0,0,24.3,11Z"/><path class="cls-9" d="M24.22,1.28a2.19,2.19,0,0,0-3.09,0v0L1.26,21.37a2.25,2.25,0,0,0,0,3.14,2.18,2.18,0,0,0,3.09,0l0,0L24.22,4.42A2.23,2.23,0,0,0,24.22,1.28Z"/><path class="cls-10" d="M34,11.22a2.19,2.19,0,0,0-3.09,0h0L11.09,31.31a2.23,2.23,0,0,0,0,3.14,2.17,2.17,0,0,0,3.08,0l0,0L34,14.36a2.23,2.23,0,0,0,0-3.14Z"/></svg>