<svg id="Layer_1" data-name="Layer 1" xmlns="http://www.w3.org/2000/svg" viewBox="0 0 22.08 25.37"><defs><style>.cls-1{fill:#d1264d;}</style></defs><path class="cls-1" d="M15.83,21.25a2.94,2.94,0,0,1-5.39,2.36,2.77,2.77,0,0,1-.24-1.22l4.89-2.15a3.15,3.15,0,0,1,.74,1Z"/><path class="cls-1" d="M.72,13.47a8.23,8.23,0,0,1,1.38-9,2.6,2.6,0,0,1-.23-.4A2.94,2.94,0,1,1,7.25,1.76a2.35,2.35,0,0,1,.13.43,8.62,8.62,0,0,1,7.74,5s2.37,5.42,5,5.85c.08,0,1.47,0,1.9,1.06s-.42,2.24-1.86,2.86L4.6,23.68c-1.44.62-3,.37-3.36-.61a2.19,2.19,0,0,1,.47-1.95c1.47-2.25-1-7.65-1-7.65Z"/></svg>