<svg id="Layer_1" data-name="Layer 1" xmlns="http://www.w3.org/2000/svg" viewBox="0 0 25.55 30.8"><defs><style>.cls-1{fill:#fff;}</style></defs><path class="cls-1" d="M21.57,3.42v3.9H25.4Z"/><path class="cls-1" d="M14.94,1.24l-.79-1a.67.67,0,0,0-.47-.2H.66A.65.65,0,0,0,0,.66V27.19a.68.68,0,0,0,.19.47.67.67,0,0,0,.47.19H5V3.21a2,2,0,0,1,.58-1.39,1.93,1.93,0,0,1,1.39-.58Z"/><path class="cls-1" d="M20.64,8.85A.67.67,0,0,1,20,8.19V3H7.54a.65.65,0,0,0-.66.65V30.14a.66.66,0,0,0,.19.46.65.65,0,0,0,.47.2H24.9a.63.63,0,0,0,.46-.2.62.62,0,0,0,.19-.46V8.85Zm1.29,5.24H11.16a.94.94,0,0,1,0-1.87H21.93a.94.94,0,0,1,0,1.87Zm0,6.12H11.16a.94.94,0,0,1,0-1.88H21.93a.94.94,0,0,1,0,1.88Zm0,6.16H11.16a.94.94,0,0,1,0-1.87H21.93a.94.94,0,0,1,0,1.87Z"/></svg>